<svg xmlns="http://www.w3.org/2000/svg" width="120" height="120" baseProfile="tiny" version="1.2"><path fill="#ED1C24" d="M117.993 60c-.162 18.134-4.57 33.562-14.582 43.404-9.842 10.013-25.275 14.42-43.407 14.596-18.137-.176-33.561-4.583-43.408-14.596C6.583 93.562 2.169 78.134 2.007 60c.162-18.137 4.576-33.573 14.589-43.4C26.443 6.576 41.867 2.169 60.004 2c18.132.169 33.567 4.576 43.407 14.6 10.012 9.827 14.42 25.263 14.582 43.4"/><path fill="#FFF" fill-rule="evenodd" d="M42.036 46.868c-.206 4.58-.784 8.778-1.27 13.068.918-.922 4.738-3.852 6.361-1.441 1.215 1.798-.486 4.836-.316 7.168.037.614 1.174.095 1.438.479-.104.803-.32 1.492-.638 2.072-1.104.324-2.902.209-3.665-.32-.885-1.398-.179-4.385-.635-6.207-2.757.695-2.967 3.941-3.824 6.527-.884.168-1.856.229-2.548-.162-.229-6.78-.482-14.373-.476-20.864.619-1.491 4.479-1.109 5.573-.32"/><path fill="#FFF" fill-rule="evenodd" d="M26.913 56.746c1.445-.803 3.972-.837 3.976-2.702 0-1.698-2.7-2.123-4.621-2.083-4.165.102-7.411 2.343-8.123 5.899-.898 4.556 2.065 8.569 6.209 9.085 3.959.48 6.417-1.35 9.406-2.868 3.011 1.681-1.249 3.646-3.034 4.296-8.484 3.074-18.764-.766-17.836-10.675.601-6.439 6.132-10.091 12.268-10.51 4.715-.322 13.081 1.928 10.186 7.485-1.168 2.279-6.592 5.327-8.431 2.073m54.457-5.885c.201 1.957-.471 4.391-.48 6.682.355.432 1.701-.104 2.072.317.074 1.032-.158 1.762-.635 2.234h-1.59c-.6 1.565-.389 3.966-.799 5.733.176.408 1.234-.07 1.432.314-.129.772-.318 1.479-.633 2.072-1.168-.061-2.602.158-3.51-.162-1.137-1.871-.594-8.366-.789-12.265-.066-1.076-.338-1.606 0-2.383.51-1.218 3.7-2.646 4.932-2.542m-19.748 1.1c2.332-.702 3.709.52 3.512 2.396-.311 2.646-5.451 2.838-5.262-.479.043-.675.644-1.58 1.75-1.917"/><path fill="#FFF" fill-rule="evenodd" d="M86.155 56.588c-.041-.138.057-.151.152-.158 1.018.304 1.658.999 2.385 1.593 5.09-1.951 6.846 5.049 4.621 8.285-1.775 2.569-6.367 2.751-8.6.476-2.696-2.741-1.896-8.228 1.442-10.196m2.221 9.555c4.703 1.168 3.547-7.726.316-3.982-.338.297-1.168.108-1.746.155-.545 1.896.184 3.524 1.43 3.827m-35.193-8.121c.432.51-.124 1.057 0 1.755.871-1.039 2.875-3.007 4.94-1.755 1.438.874 1.206 3.86.314 5.255-.8.32-2.018.115-2.866 0-.354-.287.031-1.306-.314-1.59-2.841.405-2.527 3.941-3.348 6.365-.526.32-1.616.084-2.393.162-.59-2.963-.286-6.82-.476-10.192 1.005-.452 3.144-.479 4.143 0m11.308 0c-.131 2.68-.445 5.188-.799 7.641.025.614 1.18.095 1.441.479-.105.803-.314 1.492-.643 2.072-1.113.324-2.908.209-3.665-.32-.79-2.559-.523-7.004-.476-9.872.984-.462 3.154-.462 4.142 0m11.303.953c.07 1.396-.227 2.437-.793 3.186-1.395-.107-4.1-1.495-5.09 0 1.488 1.309 4.371.57 5.09 2.393 1.521 3.83-5.234 4.738-8.127 3.027.07-.729.27-1.334.641-1.752 1.572.342 4.182 1.158 5.414 0-.863-.887-2.318-.475-3.338-.637-1.66-.273-3.482-1.033-3.83-2.559-1.121-4.995 6.728-6.237 10.033-3.658m24.207-.801c-.066 2.612-1.008 5.789-.479 7.969 2.969-.688 2.957-4.381 2.871-8.12 1.084-.371 3.467-.621 4.297.151-.26 2.555-.557 5.093-.793 7.654.131.395 1.104-.051 1.271.314.016.871-.246 1.451-.479 2.072-1.791.52-3.57-.209-3.979-1.597-.871.55-1.076 1.299-1.918 1.597-5.48 1.91-5.463-5.494-4.934-10.192.993-.431 3.387-.577 4.143.152"/><path fill="#FFF" d="M49.511 76.719h-.975v-.863h1.937v6.162h-.962v-5.299zm6.456 3.189a2.011 2.011 0 0 1-.546.085c-1.212 0-2.083-.897-2.083-2.079 0-1.172.928-2.133 2.278-2.133 1.353 0 2.264.955 2.264 2.105 0 .533-.273 1.073-.63 1.633l-1.59 2.498h-1.05l1.357-2.109zm.934-1.994c0-.691-.458-1.285-1.279-1.285-.83 0-1.299.606-1.299 1.285 0 .682.449 1.296 1.299 1.296.821 0 1.279-.614 1.279-1.296zm4.352-1.195h-.973v-.863h1.944v6.162h-.971v-5.299zm3.857 2.219c0-1.83 1.412-3.156 3.186-3.156 1.76 0 3.172 1.326 3.172 3.156 0 1.814-1.412 3.168-3.172 3.168-1.774-.001-3.186-1.354-3.186-3.168zm5.352 0c0-1.307-.898-2.279-2.166-2.279-1.283 0-2.18.973-2.18 2.279 0 1.312.896 2.291 2.18 2.291 1.267 0 2.166-.98 2.166-2.291z"/></svg>